<svg height="512" viewBox="0 0 512 512" width="512" xmlns="http://www.w3.org/2000/svg"><g id="Sale-2" data-name="Sale"><path d="m40 208h24v96a8 8 0 0 0 8 8h88a8 8 0 0 0 0-16h-80v-8h72a8 8 0 0 0 7.761-6.06l16-64a8 8 0 0 0 -7.761-9.94h-88v-8a8 8 0 0 0 -8-8h-32a8 8 0 0 0 0 16zm117.754 16-12 48h-65.754v-48z"/><circle cx="88" cy="328" r="8"/><circle cx="144" cy="328" r="8"/><path d="m496 96h-480a8 8 0 0 0 -8 8v304a8 8 0 0 0 8 8h480a8 8 0 0 0 8-8v-304a8 8 0 0 0 -8-8zm-472 16h464v32h-464zm464 288h-464v-240h464z"/><circle cx="48" cy="128" r="8"/><circle cx="72" cy="128" r="8"/><circle cx="96" cy="128" r="8"/><path d="m432 368h-48a8 8 0 0 0 0 16h48a8 8 0 0 0 0-16z"/><path d="m464 368h-8a8 8 0 0 0 0 16h8a8 8 0 0 0 0-16z"/><path d="m280 312a8 8 0 0 0 8-8v-40h32v40a8 8 0 0 0 16 0v-96a8 8 0 0 0 -8-8h-48a8 8 0 0 0 -8 8v96a8 8 0 0 0 8 8zm8-96h32v32h-32z"/><path d="m352 312h48a8 8 0 0 0 0-16h-40v-88a8 8 0 0 0 -16 0v96a8 8 0 0 0 8 8z"/><path d="m208 296a8 8 0 0 0 0 16h48a8 8 0 0 0 8-8v-48a8 8 0 0 0 -8-8h-40v-32h40a8 8 0 0 0 0-16h-48a8 8 0 0 0 -8 8v48a8 8 0 0 0 8 8h40v32z"/><path d="m424 312h48a8 8 0 0 0 0-16h-40v-32h40a8 8 0 0 0 0-16h-40v-32h40a8 8 0 0 0 0-16h-48a8 8 0 0 0 -8 8v96a8 8 0 0 0 8 8z"/></g></svg>